<?xml version="1.0" encoding="UTF-8"?>
<svg id="Calque_1" data-name="Calque 1" xmlns="http://www.w3.org/2000/svg" viewBox="0 0 89 86">
  <defs>
    <style>
      .cls-1 {
        fill: #060f48;
      }
    </style>
  </defs>
  <path class="cls-1" d="m35.95,17.32v16.5s-6.01-6.19-9.05-7.77c-.17-.09-.36-.19-.54-.3-.71-.4-1.59-.9-2.74-1.14l-.31-.27v-3.39c0-1.97,2.34-3.57,5.22-3.57l7.41-.06Z"/>
  <path class="cls-1" d="m35.95,50.23v13.09h-5.1c-4.16,0-7.54-2.32-7.54-5.17v-19.92c.7.79,1.43,1.57,2.14,2.35l.62.68c2.57,2.78,5.04,5.13,7.53,7.16.81.66,1.59,1.26,2.35,1.82Z"/>
  <path class="cls-1" d="m52.79,17.32v16.5s6.01-6.19,9.05-7.77c.17-.09.36-.19.54-.3.71-.4,1.59-.9,2.74-1.14l.31-.27v-3.39c0-1.97-2.34-3.57-5.22-3.57l-7.41-.06Z"/>
  <path class="cls-1" d="m52.79,50.23v13.09h5.1c4.16,0,7.54-2.32,7.54-5.17v-19.92c-.7.79-1.43,1.57-2.14,2.35l-.62.68c-2.57,2.78-5.04,5.13-7.53,7.16-.81.66-1.59,1.26-2.35,1.82Z"/>
  <path class="cls-1" d="m65.29,27.19c-.99.22-1.76.94-2.55,1.47-11.17,7.55-15.81,16.82-17.52,21.41h0c-.67,1.76-.89,2.83-.89,2.83,0,0,.02-.02.04-.03.18-.1.89-.36,1.53-.59.5-.19.95-.35,1.06-.4.93-.48,1.81-1.04,2.63-1.63,1.89-1.36,3.58-2.96,5.15-4.61,2.34-2.48,4.43-5.15,6.38-7.87,1.93-2.69,4-5.46,5.26-8.48.38-.9.46-2.45-1.08-2.1Zm-20.7,25.43c5.43-6.1,10.76-12.28,16.08-18.48-5.19,6.3-10.53,12.49-16.08,18.48Z"/>
  <path class="cls-1" d="m43.43,50.07v-.02c-1.04-2.77-3.14-7.24-7.09-11.99-.52-.63-1.08-1.27-1.68-1.9-2.33-2.54-5.22-5.1-8.76-7.49-.69-.46-1.37-1.07-2.19-1.36-.12-.04-.24-.07-.36-.11-1-.22-1.32.34-1.32,1.01,0,.37.11.77.24,1.09.4.97.89,1.91,1.44,2.83,1.14,1.96,2.52,3.81,3.82,5.64,1.95,2.73,4.05,5.39,6.38,7.87.25.26.5.52.75.77.55.55,1.11,1.09,1.68,1.62.87.78,1.77,1.53,2.72,2.22.83.59,1.7,1.15,2.63,1.63.11.05.56.21,1.06.4.73.26,1.56.56,1.57.62,0,0-.23-1.07-.89-2.83Zm-15.51-15.96c5.32,6.2,10.65,12.38,16.08,18.48-5.55-5.99-10.89-12.18-16.08-18.48Z"/>
  <polygon class="cls-1" points="43.82 63.25 44.32 52.62 44.82 63.25 43.82 63.25 43.82 63.25"/>
</svg>