<?xml version="1.0" encoding="UTF-8"?>
<svg id="Calque_1" data-name="Calque 1" xmlns="http://www.w3.org/2000/svg" viewBox="0 0 89 19">
  <defs>
    <style>
      .cls-1 {
        fill: #fff;
      }
    </style>
  </defs>
  <path class="cls-1" d="m11.91,7.1h1.69c.36,0,.65.29.65.65v6.82c0,.39-.31.7-.7.7h-1.63v-3.01h-1.98v3.01h-1.63c-.39,0-.7-.31-.7-.7v-6.77c0-.39.31-.7.7-.7h1.63v2.9h1.98v-2.9Z"/>
  <path class="cls-1" d="m20.14,15.27l-.28-1.05h-2.36l-.28,1.05h-2.51l2.6-8.18h2.73l2.6,8.18h-2.51Zm-2.14-2.92h1.35l-.68-2.51-.68,2.51Z"/>
  <path class="cls-1" d="m25.95,13.01h2.72v2.27h-5.78v-1.8l2.6-4.11h-2.55v-2.27h5.61v1.8l-2.6,4.11Z"/>
  <path class="cls-1" d="m36.31,14.23c-.84.82-1.86,1.23-3.08,1.23s-2.24-.41-3.08-1.23c-.84-.82-1.26-1.84-1.26-3.04s.42-2.22,1.26-3.04c.84-.82,1.86-1.23,3.08-1.23s2.24.41,3.08,1.23c.84.82,1.25,1.84,1.25,3.04s-.42,2.22-1.25,3.04Zm-4.51-1.62c.38.38.85.57,1.43.57s1.05-.19,1.43-.57.57-.85.57-1.42-.19-1.04-.57-1.42-.85-.57-1.43-.57-1.05.19-1.43.57-.57.85-.57,1.42.19,1.04.57,1.42Z"/>
  <path class="cls-1" d="m46.97,7.82v6.74c0,.4-.32.72-.72.72h-1.62v-3.98l-1.82,3.06h-.21l-1.82-3.06v3.98h-1.62c-.4,0-.72-.32-.72-.72v-6.74c0-.4.32-.72.72-.72h1.62l1.93,3.33,1.93-3.33h1.62c.4,0,.72.32.72.72Z"/>
  <path class="cls-1" d="m52.87,15.27l-.28-1.05h-2.36l-.28,1.05h-2.51l2.6-8.18h2.73l2.6,8.18h-2.51Zm-2.14-2.92h1.35l-.68-2.51-.68,2.51Z"/>
  <path class="cls-1" d="m58.18,13.01h2.69v2.27h-3.91c-.61,0-1.11-.5-1.11-1.11v-7.06h2.34v5.91Z"/>
  <path class="cls-1" d="m66.53,15.27l-.28-1.05h-2.36l-.28,1.05h-2.51l2.6-8.18h2.73l2.6,8.18h-2.51Zm-2.14-2.92h1.35l-.68-2.51-.68,2.51Z"/>
  <path class="cls-1" d="m71.84,13.01h2.69v2.27h-3.84c-.65,0-1.18-.53-1.18-1.18v-6.99h2.34v5.91Z"/>
  <path class="cls-1" d="m80.19,15.27l-.28-1.05h-2.36l-.28,1.05h-2.51l2.6-8.18h2.73l2.6,8.18h-2.51Zm-2.14-2.92h1.35l-.68-2.51-.68,2.51Z"/>
  <g>
    <path class="cls-1" d="m47.62,1.01c-.23.05-.41.22-.6.34-2.62,1.77-3.71,3.94-4.11,5.02h0c-.16.41-.21.66-.21.66,0,0,0,0,0,0,.04-.02.21-.08.36-.14.12-.04.22-.08.25-.09.22-.11.42-.24.62-.38.44-.32.84-.69,1.21-1.08.55-.58,1.04-1.21,1.49-1.84.45-.63.94-1.28,1.23-1.99.09-.21.11-.57-.25-.49Zm-4.85,5.96c1.27-1.43,2.52-2.88,3.77-4.33-1.22,1.48-2.47,2.93-3.77,4.33Z"/>
    <path class="cls-1" d="m42.5,6.37h0c-.24-.65-.74-1.7-1.66-2.82-.12-.15-.25-.3-.39-.45-.55-.59-1.22-1.2-2.05-1.76-.16-.11-.32-.25-.51-.32-.03,0-.06-.02-.08-.02-.23-.05-.31.08-.31.24,0,.09.03.18.06.26.09.23.21.45.34.66.27.46.59.89.89,1.32.46.64.95,1.26,1.49,1.84.06.06.12.12.18.18.13.13.26.26.39.38.2.18.42.36.64.52.2.14.4.27.62.38.03.01.13.05.25.09.17.06.37.13.37.15,0,0-.05-.25-.21-.66Zm-3.63-3.74c1.25,1.45,2.5,2.9,3.77,4.33-1.3-1.4-2.55-2.85-3.77-4.33Z"/>
  </g>
</svg>